<?xml version="1.0" encoding="utf-8"?>
<!-- Generator: Adobe Illustrator 17.0.0, SVG Export Plug-In . SVG Version: 6.00 Build 0)  -->
<!DOCTYPE svg PUBLIC "-//W3C//DTD SVG 1.1//EN" "http://www.w3.org/Graphics/SVG/1.1/DTD/svg11.dtd">
<svg version="1.1" id="Layer_1" xmlns="http://www.w3.org/2000/svg" xmlns:xlink="http://www.w3.org/1999/xlink" x="0px" y="0px"
	 width="10454.034px" height="1734.349px" viewBox="0 0 10454.034 1734.349" enable-background="new 0 0 10454.034 1734.349"
	 xml:space="preserve">
<g>
	<path d="M361.418,8.218l-2.668-6.494h-28.015V12.45c-0.569-0.91-1.176-1.787-1.832-2.616C323.75,3.308,316.624,0,307.73,0
		c-8.936,0-16.083,3.317-21.243,9.859c-1.836,2.327-3.334,4.973-4.488,7.923V1.093h-13.029l-0.441,1.397
		c-0.517-0.245-1.05-0.471-1.594-0.674c-2.628-0.982-5.635-1.478-8.935-1.478c-6.727,0-12.109,2.043-16.019,6.058V1.724h-28.539
		v6.487l-2.664-6.487h-28.013V12.45c-0.569-0.91-1.174-1.787-1.83-2.616C175.777,3.308,168.654,0,159.758,0
		c-8.938,0-16.085,3.318-21.242,9.859c-4.906,6.219-7.393,14.695-7.393,25.191c0,2.955,0.22,5.73,0.615,8.359h-2.641
		c-0.186-3.621-0.986-6.479-2.427-8.697c-0.212-0.327-0.438-0.642-0.681-0.944c0.717-0.649,1.372-1.362,1.961-2.138
		c2.284-3.006,3.442-6.743,3.442-11.108c0-6.109-1.77-10.843-5.263-14.07c-3.396-3.139-8.35-4.73-14.722-4.73H78.662v16.448h6.292
		c0.005,0.166,0.007,0.35,0.007,0.548v32.577c0,0.2-0.002,0.382-0.007,0.55h-6.292v7.406c-0.572-1.036-1.189-2.035-1.897-2.965
		c-2.055-2.706-4.702-4.998-7.913-6.859c2.016-1.692,3.742-3.628,5.166-5.796c3.035-4.624,4.575-10.123,4.575-16.344
		c0-9.202-2.762-16.169-8.21-20.709C65.101,2.183,57.37,0.045,46.752,0.045H0V21.64h8.451c0.895,0,1.505,0.055,1.905,0.116
		c0.111,0.66,0.235,1.844,0.235,3.841v54.765c0,2.009-0.128,3.187-0.242,3.836c-0.393,0.062-1,0.118-1.897,0.118H0v21.594h45.538
		c12.859,0,21.934-2.358,27.746-7.209c5.972-4.985,9.001-13.008,9.001-23.845c0-2.314-0.199-4.493-0.551-6.565h30.449v-2.868
		c1.909,2.262,5.25,4.592,10.91,4.592c6.261,0,9.605-3.17,11.304-5.821c1.118-1.736,1.923-3.858,2.441-6.378
		c0.525,0.82,1.083,1.611,1.679,2.365c5.157,6.525,12.303,9.833,21.24,9.833c8.916,0,16.046-3.302,21.193-9.812
		c0.648-0.821,1.249-1.688,1.814-2.589v10.678h28.791V59.07l3.792,9.224h20.645V18.719c0-0.2,0.003-0.383,0.008-0.548h0.375
		c-0.247,1.578-0.371,3.245-0.371,5.001c0,3.046,0.461,5.889,1.368,8.451c0.778,2.195,1.875,4.17,3.25,5.868h-3.898v31.56h12.631
		l0.768-1.874c0.828,0.42,1.699,0.803,2.609,1.146c2.984,1.125,6.094,1.694,9.247,1.694c6.712,0,12.18-2.175,16.248-6.469
		c2.307-2.435,3.936-5.354,4.918-8.697c0.952,1.925,2.06,3.711,3.344,5.332c5.159,6.525,12.306,9.833,21.24,9.833
		c8.91,0,16.042-3.301,21.198-9.814c0.648-0.819,1.246-1.683,1.809-2.581v10.674h28.79v-9.226l3.795,9.226h20.651V18.719
		c0-0.2,0.002-0.383,0.007-0.548h5.976V1.724h-28.538V8.218z M39.769,21.64h0.82c3.434,0,5.885,0.642,7.08,1.851
		c1.214,1.23,1.855,3.691,1.855,7.115c0,3.669-0.704,6.33-2.035,7.698c-1.64,1.685-4.888,2.04-7.323,2.04h-0.397V21.64z
		 M49.595,81.898c-1.585,1.605-4.473,2.418-8.585,2.418h-1.241V61.518h1.135c4.168,0,7.082,0.827,8.663,2.46
		c1.594,1.643,2.437,4.819,2.437,9.184C52.003,76.035,51.584,79.883,49.595,81.898 M105.922,51.847
		c-0.004-0.168-0.006-0.351-0.006-0.55v-9.325h0.82c0.55,0,0.947,0.034,1.222,0.074c0.104,0.552,0.222,1.553,0.222,3.248v5.498
		c0,0.357,0.004,0.709,0.013,1.056H105.922z M109.558,25.057c-0.262,0.121-1.21,0.468-3.545,0.468h-0.096v-7.354h0.603
		c2.219,0,2.859,0.468,2.863,0.468c0.011,0.014,0.584,0.775,0.584,3.524C109.967,24.053,109.668,24.834,109.558,25.057
		 M163.442,50.433c-1.163,2.582-2.511,2.798-3.685,2.798c-1.188,0-2.554-0.216-3.721-2.798c-0.935-2.074-2.048-6.425-2.048-15.383
		c0-8.959,1.114-13.312,2.047-15.383c1.169-2.584,2.534-2.801,3.722-2.801c1.173,0,2.521,0.216,3.686,2.8
		c0.938,2.075,2.052,6.426,2.052,15.384C165.496,44.006,164.381,48.358,163.442,50.433 M188.998,51.294
		c0,0.201-0.002,0.384-0.007,0.552h-3.402c1.814-4.819,2.743-10.427,2.743-16.797c0-6.403-0.935-12.04-2.763-16.879h3.422
		c0.004,0.166,0.007,0.348,0.007,0.548V51.294z M205.139,51.847c-0.005-0.168-0.007-0.351-0.007-0.552v-7.848l3.454,8.4H205.139z
		 M219.863,23.854l-2.332-5.683h2.326c0.004,0.166,0.006,0.348,0.006,0.548V23.854z M263.029,51.968
		c-0.533,0.476-1.457,0.719-2.742,0.719c-2.24,0-4.017-0.835-5.593-2.625c-1.213-1.38-2.118-3.148-2.708-5.282
		c1.455,0.532,3.138,1.099,5.057,1.709c0.464,0.153,1.141,0.362,1.987,0.615c1.378,0.427,4.582,1.589,4.582,3.144
		C263.612,51.448,263.218,51.799,263.029,51.968 M261.648,22.164c-4.511-1.27-5.237-2.523-5.251-2.523
		c0-1.169,0.361-1.516,0.508-1.659c0.148-0.141,0.594-0.57,2.03-0.57c2.358,0,4.113,0.707,5.526,2.218
		c0.967,1.038,1.693,2.392,2.172,4.043C265.359,23.253,263.728,22.761,261.648,22.164 M279.203,31.413
		c-0.1-0.118-0.189-0.24-0.292-0.355h0.314C279.216,31.175,279.209,31.294,279.203,31.413 M311.414,50.435
		c-1.161,2.579-2.51,2.796-3.685,2.796c-1.188,0-2.552-0.216-3.719-2.797c-0.935-2.075-2.049-6.429-2.049-15.384
		c0-8.955,1.115-13.31,2.047-15.383c1.169-2.584,2.533-2.801,3.721-2.801c1.173,0,2.524,0.216,3.687,2.801
		c0.935,2.069,2.05,6.417,2.05,15.383C313.467,44.015,312.353,48.362,311.414,50.435 M336.973,51.294
		c0,0.201-0.002,0.384-0.007,0.552h-3.402c1.814-4.821,2.742-10.428,2.742-16.797c0-6.404-0.935-12.04-2.763-16.879h3.422
		c0.005,0.165,0.007,0.348,0.007,0.548V51.294z M353.106,51.847c-0.005-0.168-0.007-0.351-0.007-0.552V43.44l3.459,8.407H353.106z
		 M367.831,18.171c0.005,0.166,0.007,0.348,0.007,0.548v5.135l-2.333-5.683H367.831z"/>
	<path d="M640.789,84.317c-0.275,0-0.359-0.053-0.5-0.183c-0.195-0.183-0.92-0.968-2.051-3.446l-18.454-40.039l10.232-11.977
		l0.083-0.054l0.388-0.443c5.471-6.239,7.607-6.525,7.664-6.532h7.928V0.046H553.89v0.963h-7.984l-0.434,1.542
		c-0.537-0.298-1.078-0.568-1.626-0.81C541.224,0.586,538.401,0,535.455,0c-4.018,0-7.671,0.83-10.852,2.466
		c-3.14,1.611-6.014,4.112-8.556,7.45c-2.172,2.882-3.846,6.121-5.052,9.615c-1.222-3.665-2.904-6.921-5.1-9.699
		C500.734,3.308,493.61,0,484.72,0c-8.932,0-16.078,3.317-21.242,9.858c-4.906,6.217-7.393,14.692-7.393,25.192
		c0,2.954,0.221,5.73,0.615,8.358h-2.639c-0.187-3.615-0.988-6.473-2.431-8.698c-0.211-0.327-0.438-0.641-0.679-0.941
		c0.716-0.649,1.37-1.36,1.96-2.134c2.288-3.006,3.447-6.745,3.447-11.111c0-6.109-1.773-10.844-5.265-14.069
		c-3.392-3.14-8.347-4.732-14.724-4.732h-32.738v16.448h6.288c0.004,0.167,0.006,0.35,0.006,0.548v32.577
		c0,0.2-0.002,0.383-0.007,0.549h-6.286v16.446h33.519v-2.86c1.913,2.259,5.254,4.585,10.909,4.585c6.257,0,9.604-3.167,11.31-5.826
		c1.113-1.736,1.916-3.855,2.434-6.372c0.526,0.82,1.084,1.612,1.681,2.365c5.162,6.524,12.308,9.832,21.239,9.832
		c8.91,0,16.04-3.301,21.192-9.812c2.175-2.75,3.846-5.97,5.062-9.594c1.162,3.474,2.736,6.599,4.768,9.313
		c5.014,6.696,11.825,10.092,20.245,10.092c7.577,0,13.493-2.607,17.588-7.75c3.819-4.813,5.85-11.763,6.036-20.659l0.094-4.537
		h-15.577l-0.201,4.234c-0.191,4.004-0.973,7.07-2.323,9.111c-1.225,1.849-2.414,2.103-3.518,2.103c-0.826,0-2.545,0-4.187-3.278
		c-1.59-3.166-2.396-7.996-2.396-14.356c0-6.242,0.816-11.029,2.432-14.237c1.658-3.316,3.302-3.316,4.092-3.316
		c1.17,0,2.549,0.273,3.913,2.285c1.439,2.128,2.274,5.347,2.485,9.569l0.21,4.223h14.975V21.641h2.728
		c0.896,0,1.507,0.055,1.909,0.116c0.111,0.659,0.235,1.843,0.235,3.839v54.764c0,2.008-0.129,3.189-0.244,3.837
		c-0.393,0.062-1.002,0.119-1.901,0.119h-8.449v21.594h94.453V84.317H640.789z M430.885,51.845
		c-0.005-0.166-0.007-0.349-0.007-0.549v-9.325h0.819c0.551,0,0.948,0.035,1.222,0.074c0.105,0.555,0.224,1.557,0.224,3.248v5.498
		c0,0.357,0.004,0.709,0.011,1.055H430.885z M434.517,25.058c-0.258,0.12-1.206,0.467-3.539,0.467h-0.1v-7.354h0.599
		c2.226,0,2.865,0.47,2.866,0.47c0.007,0.009,0.582,0.766,0.582,3.522C434.926,24.06,434.625,24.839,434.517,25.058 M488.407,50.434
		c-1.162,2.581-2.513,2.797-3.688,2.797c-1.189,0-2.554-0.216-3.719-2.8c-0.933-2.069-2.048-6.417-2.048-15.381
		c0-8.965,1.114-13.314,2.048-15.385c1.165-2.582,2.531-2.798,3.719-2.798c1.175,0,2.524,0.216,3.689,2.798
		c0.936,2.076,2.052,6.429,2.052,15.385C490.461,44.005,489.344,48.357,488.407,50.434 M525.99,16.658
		c-2.273,4.511-3.377,10.473-3.377,18.224c0,7.869,1.093,13.87,3.339,18.341c2.577,5.148,6.136,7.2,9.305,7.887
		c-5.193-0.18-9.254-2.318-12.398-6.517c-3.541-4.73-5.336-11.333-5.336-19.626c0-4.195,0.48-7.974,1.424-11.227
		c0.91-3.131,2.324-5.982,4.188-8.457c1.717-2.256,3.578-3.907,5.532-4.91c1.685-0.867,3.656-1.357,5.872-1.462
		C531.589,9.748,528.383,11.869,525.99,16.658 M600.409,84.317h-4.984c-0.96,0-1.593-0.065-1.99-0.133
		c-0.117-0.631-0.254-1.8-0.254-3.824v-8.914l5.827-6.661l8.795,19.532H600.409z M593.181,39.187V25.596
		c0-2.023,0.137-3.192,0.253-3.822c0.398-0.068,1.031-0.133,1.991-0.133h12.898L593.181,39.187z"/>
	<path d="M366.358,10.688l-2.668-6.494h-28.015V14.92c-0.569-0.91-1.176-1.787-1.832-2.616c-5.155-6.526-12.28-9.834-21.175-9.834
		c-8.936,0-16.083,3.317-21.244,9.859c-1.836,2.327-3.334,4.973-4.488,7.923V3.562h-13.029l-0.441,1.397
		c-0.517-0.245-1.05-0.471-1.594-0.674c-2.628-0.982-5.635-1.478-8.935-1.478c-6.727,0-12.109,2.043-16.019,6.058V4.194H218.38
		v6.487l-2.664-6.487h-28.013V14.92c-0.569-0.91-1.174-1.787-1.83-2.616c-5.157-6.526-12.28-9.834-21.176-9.834
		c-8.938,0-16.085,3.318-21.242,9.859c-4.906,6.219-7.393,14.695-7.393,25.191c0,2.955,0.22,5.73,0.615,8.359h-2.641
		c-0.186-3.621-0.986-6.479-2.427-8.697c-0.212-0.327-0.438-0.642-0.681-0.944c0.717-0.649,1.372-1.362,1.961-2.138
		c2.284-3.006,3.442-6.743,3.442-11.108c0-6.109-1.77-10.843-5.263-14.07c-3.396-3.139-8.35-4.73-14.722-4.73H83.601v16.448h6.292
		c0.005,0.166,0.007,0.35,0.007,0.548v32.577c0,0.2-0.002,0.382-0.007,0.55h-6.292v7.406c-0.572-1.036-1.189-2.035-1.897-2.965
		c-2.055-2.706-4.702-4.998-7.913-6.859c2.016-1.692,3.742-3.628,5.166-5.796c3.035-4.624,4.575-10.123,4.575-16.344
		c0-9.202-2.762-16.169-8.21-20.709C70.04,4.653,62.31,2.515,51.691,2.515H4.939v21.594h8.451c0.895,0,1.505,0.055,1.905,0.116
		c0.111,0.66,0.235,1.844,0.235,3.841v54.765c0,2.009-0.128,3.187-0.242,3.836c-0.393,0.061-1,0.118-1.897,0.118H4.939v21.594
		h45.538c12.859,0,21.934-2.358,27.746-7.209c5.972-4.985,9.001-13.008,9.001-23.845c0-2.314-0.199-4.493-0.551-6.565h30.449v-2.868
		c1.909,2.262,5.25,4.592,10.91,4.592c6.261,0,9.605-3.169,11.304-5.821c1.118-1.736,1.923-3.858,2.441-6.378
		c0.525,0.82,1.083,1.611,1.679,2.365c5.157,6.525,12.303,9.833,21.24,9.833c8.916,0,16.046-3.302,21.193-9.812
		c0.648-0.821,1.249-1.688,1.814-2.589v10.678h28.791v-9.224l3.792,9.224h20.645V21.189c0-0.2,0.003-0.383,0.008-0.548h0.375
		c-0.247,1.578-0.371,3.245-0.371,5.001c0,3.046,0.461,5.889,1.368,8.451c0.778,2.195,1.875,4.17,3.25,5.868h-3.898v31.56h12.631
		l0.768-1.874c0.828,0.42,1.699,0.803,2.609,1.146c2.984,1.125,6.094,1.694,9.247,1.694c6.712,0,12.18-2.175,16.248-6.469
		c2.307-2.435,3.936-5.354,4.918-8.697c0.952,1.925,2.06,3.711,3.344,5.332c5.159,6.525,12.306,9.833,21.24,9.833
		c8.91,0,16.042-3.301,21.198-9.814c0.648-0.819,1.246-1.683,1.809-2.581v10.674h28.79v-9.226l3.795,9.226h20.651V21.189
		c0-0.2,0.002-0.383,0.007-0.548h5.976V4.194h-28.538V10.688z M44.708,24.109h0.82c3.434,0,5.885,0.642,7.08,1.851
		c1.214,1.23,1.855,3.691,1.855,7.115c0,3.669-0.704,6.33-2.035,7.698c-1.64,1.685-4.888,2.04-7.323,2.04h-0.397V24.109z
		 M54.534,84.368c-1.585,1.605-4.473,2.418-8.585,2.418h-1.241V63.988h1.135c4.168,0,7.082,0.827,8.663,2.46
		c1.594,1.644,2.437,4.819,2.437,9.184C56.942,78.505,56.523,82.353,54.534,84.368 M110.862,54.316
		c-0.004-0.168-0.006-0.351-0.006-0.55v-9.325h0.82c0.551,0,0.947,0.034,1.222,0.074c0.104,0.552,0.222,1.553,0.222,3.248v5.498
		c0,0.357,0.004,0.709,0.013,1.056H110.862z M114.498,27.526c-0.262,0.121-1.21,0.468-3.545,0.468h-0.096v-7.354h0.603
		c2.219,0,2.859,0.468,2.863,0.468c0.011,0.014,0.584,0.775,0.584,3.524C114.906,26.522,114.607,27.304,114.498,27.526
		 M168.382,52.903c-1.163,2.582-2.511,2.798-3.685,2.798c-1.188,0-2.554-0.216-3.721-2.798c-0.935-2.074-2.048-6.425-2.048-15.383
		c0-8.959,1.114-13.312,2.047-15.383c1.169-2.584,2.534-2.801,3.722-2.801c1.173,0,2.521,0.216,3.686,2.8
		c0.938,2.075,2.052,6.426,2.052,15.384C170.435,46.476,169.32,50.828,168.382,52.903 M193.937,53.764
		c0,0.201-0.002,0.384-0.007,0.552h-3.402c1.814-4.819,2.743-10.427,2.743-16.797c0-6.403-0.935-12.04-2.763-16.879h3.422
		c0.004,0.166,0.007,0.348,0.007,0.548V53.764z M210.078,54.316c-0.005-0.168-0.007-0.351-0.007-0.552v-7.848l3.454,8.4H210.078z
		 M224.802,26.324l-2.332-5.683h2.326c0.004,0.166,0.006,0.348,0.006,0.548V26.324z M267.968,54.438
		c-0.533,0.476-1.457,0.719-2.742,0.719c-2.24,0-4.017-0.835-5.593-2.625c-1.213-1.38-2.118-3.148-2.708-5.282
		c1.455,0.532,3.138,1.099,5.057,1.709c0.464,0.153,1.141,0.362,1.987,0.615c1.378,0.427,4.582,1.589,4.582,3.144
		C268.551,53.917,268.157,54.268,267.968,54.438 M266.588,24.634c-4.511-1.27-5.237-2.523-5.251-2.523
		c0-1.169,0.361-1.516,0.508-1.659c0.148-0.141,0.594-0.57,2.03-0.57c2.358,0,4.113,0.707,5.526,2.218
		c0.967,1.038,1.693,2.392,2.172,4.043C270.298,25.723,268.667,25.23,266.588,24.634 M284.142,33.882
		c-0.1-0.118-0.189-0.24-0.292-0.355h0.314C284.155,33.645,284.148,33.763,284.142,33.882 M316.354,52.905
		c-1.161,2.579-2.51,2.796-3.685,2.796c-1.188,0-2.552-0.216-3.719-2.797c-0.935-2.075-2.049-6.429-2.049-15.384
		c0-8.955,1.115-13.31,2.047-15.383c1.169-2.584,2.533-2.801,3.721-2.801c1.173,0,2.524,0.216,3.687,2.801
		c0.935,2.069,2.05,6.417,2.05,15.383C318.406,46.485,317.291,50.831,316.354,52.905 M341.912,53.764
		c0,0.201-0.002,0.384-0.007,0.552h-3.402c1.814-4.821,2.742-10.428,2.742-16.797c0-6.404-0.935-12.04-2.763-16.879h3.422
		c0.005,0.165,0.007,0.348,0.007,0.548V53.764z M358.045,54.316c-0.005-0.168-0.007-0.351-0.007-0.552v-7.855l3.459,8.407H358.045z
		 M372.771,20.641c0.005,0.166,0.007,0.348,0.007,0.548v5.135l-2.333-5.683H372.771z"/>
	<path d="M645.729,86.787c-0.275,0-0.359-0.053-0.5-0.183c-0.195-0.183-0.92-0.968-2.051-3.446l-18.454-40.039l10.232-11.977
		l0.083-0.054l0.388-0.443c5.471-6.239,7.607-6.525,7.664-6.532h7.928V2.516h-92.189v0.963h-7.984l-0.434,1.542
		c-0.537-0.298-1.078-0.568-1.626-0.81c-2.622-1.155-5.445-1.741-8.391-1.741c-4.018,0-7.671,0.83-10.852,2.466
		c-3.14,1.611-6.014,4.112-8.556,7.45c-2.172,2.882-3.846,6.121-5.052,9.615c-1.222-3.665-2.904-6.921-5.1-9.699
		c-5.161-6.524-12.286-9.832-21.176-9.832c-8.932,0-16.078,3.317-21.242,9.858c-4.906,6.217-7.393,14.692-7.393,25.192
		c0,2.954,0.221,5.73,0.615,8.358H459c-0.187-3.615-0.988-6.473-2.431-8.698c-0.211-0.327-0.438-0.641-0.679-0.941
		c0.716-0.649,1.37-1.36,1.96-2.134c2.288-3.006,3.446-6.745,3.446-11.111c0-6.109-1.773-10.844-5.265-14.069
		c-3.392-3.14-8.347-4.732-14.724-4.732h-32.738v16.448h6.288c0.004,0.167,0.006,0.35,0.006,0.548v32.577
		c0,0.2-0.002,0.383-0.007,0.549h-6.286v16.446h33.519v-2.86c1.913,2.259,5.254,4.585,10.909,4.585c6.257,0,9.604-3.167,11.31-5.826
		c1.113-1.736,1.916-3.855,2.434-6.372c0.526,0.82,1.084,1.612,1.681,2.365c5.162,6.524,12.308,9.832,21.239,9.832
		c8.911,0,16.04-3.301,21.192-9.812c2.175-2.75,3.846-5.97,5.062-9.594c1.162,3.474,2.736,6.599,4.768,9.313
		c5.014,6.696,11.825,10.092,20.245,10.092c7.577,0,13.493-2.606,17.588-7.75c3.819-4.813,5.85-11.763,6.036-20.659l0.094-4.537
		h-15.577l-0.201,4.234c-0.191,4.004-0.973,7.07-2.323,9.111c-1.225,1.849-2.414,2.103-3.518,2.103c-0.826,0-2.545,0-4.187-3.278
		c-1.59-3.166-2.396-7.996-2.396-14.356c0-6.242,0.816-11.029,2.432-14.237c1.658-3.316,3.302-3.316,4.092-3.316
		c1.17,0,2.549,0.273,3.913,2.285c1.439,2.128,2.274,5.347,2.485,9.569l0.21,4.223h14.975V24.111h2.728
		c0.896,0,1.507,0.055,1.909,0.116c0.111,0.659,0.235,1.843,0.235,3.839V82.83c0,2.008-0.129,3.189-0.244,3.837
		c-0.393,0.061-1.002,0.119-1.901,0.119h-8.449v21.594h94.453V86.787H645.729z M435.824,54.315
		c-0.005-0.166-0.007-0.349-0.007-0.549v-9.325h0.819c0.551,0,0.948,0.035,1.222,0.074c0.105,0.555,0.224,1.557,0.224,3.248v5.498
		c0,0.357,0.004,0.709,0.011,1.055H435.824z M439.457,27.528c-0.258,0.12-1.206,0.467-3.539,0.467h-0.1v-7.354h0.599
		c2.226,0,2.865,0.47,2.866,0.47c0.007,0.009,0.582,0.766,0.582,3.522C439.865,26.53,439.564,27.309,439.457,27.528 M493.347,52.904
		c-1.163,2.581-2.513,2.797-3.688,2.797c-1.189,0-2.554-0.216-3.719-2.8c-0.933-2.069-2.048-6.417-2.048-15.381
		c0-8.965,1.114-13.314,2.048-15.385c1.165-2.582,2.531-2.798,3.719-2.798c1.175,0,2.524,0.216,3.689,2.798
		c0.936,2.076,2.052,6.429,2.052,15.385C495.4,46.475,494.284,50.827,493.347,52.904 M530.929,19.128
		c-2.273,4.511-3.377,10.473-3.377,18.224c0,7.869,1.093,13.87,3.339,18.341c2.577,5.148,6.136,7.2,9.305,7.887
		c-5.193-0.18-9.254-2.318-12.398-6.517c-3.541-4.73-5.336-11.333-5.336-19.626c0-4.195,0.48-7.974,1.424-11.227
		c0.91-3.131,2.324-5.982,4.188-8.457c1.717-2.256,3.578-3.907,5.532-4.91c1.685-0.867,3.656-1.357,5.872-1.462
		C536.528,12.218,533.323,14.339,530.929,19.128 M605.349,86.787h-4.984c-0.96,0-1.593-0.065-1.99-0.133
		c-0.117-0.631-0.254-1.8-0.254-3.824v-8.914l5.827-6.661l8.795,19.532H605.349z M598.12,41.657V28.066
		c0-2.023,0.137-3.192,0.253-3.822c0.398-0.068,1.031-0.133,1.991-0.133h12.898L598.12,41.657z"/>
	<rect x="86.413" y="71.864" width="467.477" height="29.6"/>
	<path fill="#EDA307" d="M4.446,101.464V88.762h4.004c2.809,0,4.61-0.469,5.398-1.413c0.792-0.941,1.188-3.27,1.188-6.986V25.597
		c0-3.768-0.396-6.108-1.188-7.025c-0.787-0.917-2.589-1.378-5.398-1.378H4.446V4.492h42.305c9.45,0,16.377,1.834,20.786,5.505
		c4.406,3.67,6.609,9.434,6.609,17.292c0,5.364-1.282,10-3.845,13.904c-2.564,3.904-6.287,6.894-11.17,8.962
		c6.324,1.834,11.023,4.777,14.093,8.821c3.075,4.048,4.614,9.341,4.614,15.882c0,9.504-2.472,16.314-7.404,20.431
		c-4.935,4.119-13.234,6.176-24.897,6.176H4.446z M35.323,44.79h4.843c4.813,0,8.317-1.13,10.511-3.387
		c2.194-2.256,3.293-5.857,3.293-10.796c0-4.705-1.046-8.118-3.134-10.237c-2.09-2.115-5.507-3.176-10.248-3.176h-5.266V44.79z
		 M35.323,88.762h5.688c5.374,0,9.285-1.246,11.749-3.741c2.459-2.493,3.688-6.446,3.688-11.859c0-5.644-1.229-9.741-3.688-12.279
		c-2.464-2.542-6.411-3.812-11.855-3.812h-5.582V88.762z"/>
	<path fill="#EDA307" d="M101.471,51.296c0,2.185,0.236,3.561,0.707,4.136c0.469,0.573,1.558,0.859,3.275,0.859h2.286v7.555H83.108
		v-7.555h2.384c1.671,0,2.74-0.28,3.211-0.84c0.469-0.558,0.705-1.943,0.705-4.155V18.72c0-2.239-0.236-3.629-0.705-4.177
		c-0.471-0.548-1.54-0.817-3.211-0.817h-2.384V6.168h28.298c5.242,0,9.145,1.182,11.704,3.549c2.558,2.362,3.837,5.967,3.837,10.806
		c0,3.387-0.845,6.191-2.536,8.418c-1.693,2.224-4.147,3.743-7.366,4.555c2.759,0.616,4.724,1.824,5.892,3.63
		c1.173,1.805,1.758,4.472,1.758,7.997v5.584c0,2.407,0.136,4.037,0.405,4.889c0.272,0.859,0.756,1.282,1.445,1.282
		c0.811,0,1.381-0.636,1.706-1.91c0.325-1.275,0.484-3.645,0.484-7.116h4.294c0,0.28,0.01,0.663,0.033,1.155
		c0.018,0.489,0.032,0.847,0.032,1.073c0,5.289-0.812,9.189-2.434,11.709c-1.615,2.522-4.14,3.781-7.566,3.781
		c-3.615,0-6.261-1.192-7.942-3.57c-1.687-2.381-2.525-6.114-2.525-11.21v-5.497c0-3.22-0.38-5.318-1.144-6.298
		c-0.765-0.978-2.345-1.469-4.745-1.469h-5.266V51.296z M101.471,29.97h4.542c3.26,0,5.475-0.566,6.646-1.702
		c1.169-1.132,1.754-3.169,1.754-6.105c0-3.08-0.584-5.256-1.754-6.529c-1.171-1.273-3.217-1.909-6.141-1.909h-5.047V29.97z"/>
	<path fill="#EDA307" d="M135.568,35.05c0-9.516,2.143-16.994,6.437-22.438c4.292-5.444,10.21-8.166,17.752-8.166
		c7.5,0,13.397,2.714,17.688,8.145c4.294,5.43,6.441,12.916,6.441,22.46c0,9.516-2.141,16.98-6.424,22.394
		c-4.281,5.417-10.185,8.125-17.705,8.125c-7.543,0-13.46-2.714-17.752-8.144C137.711,51.997,135.568,44.538,135.568,35.05
		 M149.543,35.05c0,7.866,0.815,13.601,2.443,17.21c1.63,3.61,4.221,5.416,7.772,5.416c3.529,0,6.112-1.806,7.739-5.416
		c1.629-3.609,2.445-9.344,2.445-17.21s-0.816-13.602-2.445-17.213c-1.627-3.609-4.21-5.416-7.739-5.416
		c-3.551,0-6.142,1.807-7.772,5.416C150.358,21.448,149.543,27.184,149.543,35.05"/>
	<path fill="#EDA307" d="M193.444,18.72c0-2.185-0.239-3.56-0.72-4.137c-0.479-0.572-1.57-0.857-3.257-0.857h-2.256V6.168h20.586
		l16.513,40.216V18.72c0-2.185-0.239-3.56-0.718-4.137c-0.482-0.572-1.568-0.857-3.261-0.857h-2.445V6.168h19.649v7.557h-2.005
		c-1.693,0-2.778,0.285-3.258,0.857c-0.481,0.577-0.724,1.952-0.724,4.137v45.128h-13.222l-17.64-42.902v30.349
		c0,2.188,0.238,3.565,0.72,4.138c0.478,0.573,1.562,0.86,3.257,0.86h2.445v7.556H187.21v-7.556h2.256
		c1.688,0,2.778-0.287,3.257-0.86c0.481-0.573,0.72-1.95,0.72-4.138V18.72z"/>
	<path fill="#EDA307" d="M246.373,64.605h-5.203v-22.67h5.768c0.522,4.613,1.993,8.305,4.418,11.062
		c2.425,2.756,5.401,4.134,8.93,4.134c2.424,0,4.324-0.617,5.702-1.847c1.38-1.231,2.069-2.912,2.069-5.037
		c0-3.333-2.57-5.795-7.712-7.389c-0.832-0.251-1.471-0.446-1.908-0.59c-4.493-1.427-7.598-2.601-9.324-3.524
		c-1.725-0.924-3.151-1.983-4.276-3.188c-1.442-1.513-2.531-3.317-3.276-5.418c-0.744-2.098-1.112-4.421-1.112-6.965
		c0-5.823,1.53-10.342,4.591-13.563c3.06-3.217,7.378-4.827,12.958-4.827c2.78,0,5.238,0.397,7.381,1.196
		c2.14,0.799,3.995,2.007,5.563,3.63l1.286-4.071h5.325v21.074h-5.892c-0.376-4.254-1.691-7.591-3.947-10.012
		c-2.259-2.42-5.182-3.633-8.777-3.633c-2.15,0-3.85,0.602-5.106,1.806c-1.252,1.204-1.878,2.828-1.878,4.868
		c0,2.942,2.829,5.208,8.491,6.802c2.153,0.617,3.854,1.135,5.106,1.553c4.932,1.622,8.54,3.948,10.827,6.971
		c2.288,3.023,3.432,6.968,3.432,11.836c0,5.74-1.601,10.3-4.807,13.686c-3.208,3.385-7.55,5.082-13.022,5.082
		c-2.632,0-5.193-0.472-7.68-1.408c-2.486-0.94-4.554-2.189-6.204-3.756L246.373,64.605z"/>
	<path fill="#EDA307" d="M283.539,35.05c0-9.516,2.144-16.994,6.438-22.438c4.294-5.444,10.21-8.166,17.752-8.166
		c7.502,0,13.397,2.714,17.687,8.145c4.298,5.43,6.444,12.916,6.444,22.46c0,9.516-2.144,16.98-6.422,22.394
		c-4.288,5.417-10.189,8.125-17.71,8.125c-7.543,0-13.459-2.714-17.752-8.144C285.682,51.997,283.539,44.538,283.539,35.05
		 M297.516,35.05c0,7.866,0.816,13.601,2.443,17.21c1.63,3.61,4.221,5.416,7.771,5.416c3.531,0,6.114-1.806,7.739-5.416
		c1.631-3.609,2.444-9.344,2.444-17.21s-0.813-13.602-2.444-17.213c-1.625-3.609-4.207-5.416-7.739-5.416
		c-3.55,0-6.141,1.807-7.771,5.416C298.332,21.448,297.516,27.184,297.516,35.05"/>
	<path fill="#EDA307" d="M341.418,18.72c0-2.185-0.239-3.56-0.724-4.137c-0.475-0.572-1.563-0.857-3.257-0.857h-2.256V6.168h20.59
		l16.513,40.216V18.72c0-2.185-0.236-3.56-0.719-4.137c-0.481-0.572-1.565-0.857-3.257-0.857h-2.444V6.168h19.648v7.557h-2.008
		c-1.696,0-2.774,0.285-3.255,0.857c-0.482,0.577-0.721,1.952-0.721,4.137v45.128H366.3l-17.646-42.902v30.349
		c0,2.188,0.242,3.565,0.724,4.138c0.479,0.573,1.565,0.86,3.258,0.86h2.446v7.556h-19.9v-7.556h2.256
		c1.694,0,2.782-0.287,3.257-0.86c0.485-0.573,0.724-1.95,0.724-4.138V18.72z"/>
	<path fill="#EDA307" d="M426.433,51.296c0,2.185,0.236,3.561,0.705,4.136c0.468,0.573,1.567,0.859,3.276,0.859h2.288v7.555h-24.629
		v-7.555h2.381c1.669,0,2.739-0.28,3.211-0.84c0.467-0.558,0.702-1.943,0.702-4.155V18.72c0-2.239-0.235-3.629-0.702-4.177
		c-0.473-0.548-1.542-0.817-3.211-0.817h-2.381V6.168h28.293c5.246,0,9.147,1.182,11.705,3.549c2.558,2.362,3.84,5.967,3.84,10.806
		c0,3.387-0.845,6.191-2.54,8.418c-1.692,2.224-4.147,3.743-7.366,4.555c2.758,0.616,4.722,1.824,5.893,3.63
		c1.171,1.805,1.758,4.472,1.758,7.997v5.584c0,2.407,0.133,4.037,0.404,4.889c0.273,0.859,0.754,1.282,1.442,1.282
		c0.809,0,1.382-0.636,1.711-1.91c0.323-1.275,0.486-3.645,0.486-7.116h4.291c0,0.28,0.008,0.663,0.03,1.155
		c0.021,0.489,0.033,0.847,0.033,1.073c0,5.289-0.813,9.189-2.43,11.709c-1.618,2.522-4.142,3.781-7.568,3.781
		c-3.614,0-6.264-1.192-7.947-3.57c-1.677-2.381-2.522-6.114-2.522-11.21v-5.497c0-3.22-0.383-5.318-1.14-6.298
		c-0.768-0.978-2.346-1.469-4.75-1.469h-5.265V51.296z M426.433,29.97h4.545c3.257,0,5.476-0.566,6.64-1.702
		c1.172-1.132,1.754-3.169,1.754-6.105c0-3.08-0.581-5.256-1.754-6.529c-1.164-1.273-3.211-1.909-6.14-1.909h-5.044V29.97z"/>
	<path fill="#EDA307" d="M460.529,35.05c0-9.516,2.142-16.994,6.44-22.438c4.295-5.444,10.212-8.166,17.752-8.166
		c7.503,0,13.392,2.714,17.688,8.145c4.292,5.43,6.44,12.916,6.44,22.46c0,9.516-2.142,16.98-6.424,22.394
		c-4.286,5.417-10.184,8.125-17.704,8.125c-7.541,0-13.457-2.714-17.752-8.144C462.671,51.997,460.529,44.538,460.529,35.05
		 M474.508,35.05c0,7.866,0.812,13.601,2.442,17.21c1.627,3.61,4.221,5.416,7.771,5.416c3.528,0,6.113-1.806,7.739-5.416
		c1.629-3.609,2.447-9.344,2.447-17.21s-0.818-13.602-2.447-17.213c-1.627-3.609-4.211-5.416-7.739-5.416
		c-3.55,0-6.144,1.807-7.771,5.416C475.319,21.448,474.508,27.184,474.508,35.05"/>
	<path fill="#EDA307" d="M548.367,41.514h6.799c-0.165,7.95-1.864,13.944-5.073,17.987c-3.222,4.048-7.919,6.068-14.106,6.068
		c-6.982,0-12.538-2.771-16.686-8.312c-4.15-5.542-6.223-12.975-6.223-22.291c0-4.646,0.537-8.803,1.6-12.468
		c1.066-3.667,2.707-6.971,4.92-9.908c2.13-2.797,4.474-4.854,7.035-6.169c2.56-1.316,5.501-1.976,8.821-1.976
		c2.34,0,4.539,0.457,6.599,1.363c2.057,0.913,4.03,2.318,5.934,4.222l1.286-4.576h5.892v23.507h-6.3
		c-0.253-5.065-1.333-9.009-3.243-11.836c-1.913-2.825-4.445-4.241-7.596-4.241c-3.453,0-6.143,1.925-8.068,5.773
		c-1.938,3.848-2.901,9.257-2.901,16.225c0,7.082,0.95,12.531,2.869,16.352c1.913,3.819,4.627,5.728,8.159,5.728
		c3.006,0,5.416-1.365,7.223-4.092C547.114,50.141,548.136,46.356,548.367,41.514"/>
	<path fill="#EDA307" d="M558.335,101.465V88.763h4.004c2.812,0,4.616-0.473,5.401-1.412c0.79-0.943,1.188-3.271,1.188-6.991V25.597
		c0-3.766-0.398-6.109-1.188-7.025c-0.785-0.919-2.589-1.377-5.401-1.377h-4.004V4.492h39.622v12.702h-2.531
		c-2.844,0-4.668,0.482-5.478,1.448c-0.807,0.967-1.211,3.281-1.211,6.954v25.546l24.179-28.016
		c0.561-0.661,0.977-1.283,1.245-1.871c0.259-0.59,0.396-1.166,0.396-1.73c0-0.798-0.328-1.387-0.986-1.765
		c-0.643-0.377-1.652-0.566-3.022-0.566h-5.053V4.492h36.14v12.702h-3.483c-2.631,0-6.302,2.684-11.006,8.046l-0.106,0.072
		l-12.484,14.611L634.2,82.548c1.053,2.307,2.073,3.919,3.058,4.837c0.984,0.917,2.16,1.378,3.53,1.378h3.11v12.702h-39.044V88.763
		h3.109c1.794,0,3.07-0.225,3.824-0.673c0.754-0.445,1.128-1.188,1.128-2.223c0-0.377-0.053-0.754-0.157-1.131
		c-0.106-0.375-0.333-0.965-0.685-1.762l-11.854-26.326l-11.483,13.128v10.584c0,3.67,0.404,5.987,1.211,6.955
		c0.81,0.966,2.635,1.448,5.478,1.448h2.531v12.702H558.335z"/>
	<g>
		<path fill="#EDA307" d="M99.26,79.725h3.239l2.846,9.304l3.082-9.343h2.591l3.082,9.343l2.846-9.304h3.16l-4.691,13.838h-2.63
			l-3.101-8.99l-3.101,8.99h-2.63L99.26,79.725z"/>
		<path fill="#EDA307" d="M128.802,86.634v-0.039c0-3.906,3.082-7.106,7.321-7.106c4.24,0,7.282,3.16,7.282,7.066v0.039
			c0,3.906-3.082,7.106-7.321,7.106C131.844,93.7,128.802,90.54,128.802,86.634z M140.245,86.634v-0.039
			c0-2.355-1.727-4.318-4.161-4.318s-4.122,1.924-4.122,4.279v0.039c0,2.355,1.727,4.318,4.161,4.318S140.245,88.989,140.245,86.634
			z"/>
		<path fill="#EDA307" d="M153.337,86.634v-0.039c0-3.906,3.082-7.106,7.321-7.106s7.282,3.16,7.282,7.066v0.039
			c0,3.906-3.082,7.106-7.321,7.106S153.337,90.54,153.337,86.634z M164.781,86.634v-0.039c0-2.355-1.727-4.318-4.161-4.318
			s-4.122,1.924-4.122,4.279v0.039c0,2.355,1.727,4.318,4.161,4.318S164.781,88.989,164.781,86.634z"/>
		<path fill="#EDA307" d="M178.482,79.725h5.359c4.318,0,7.302,2.964,7.302,6.831v0.039c0,3.867-2.984,6.87-7.302,6.87h-5.359
			V79.725z M181.504,82.453v8.283h2.336c2.473,0,4.142-1.668,4.142-4.102v-0.039c0-2.434-1.668-4.142-4.142-4.142H181.504z"/>
		<path fill="#EDA307" d="M201.015,85.947h6.046v2.866h-6.046V85.947z"/>
		<path fill="#EDA307" d="M217.542,79.725h10.462v2.748h-7.439v2.925h6.556v2.748h-6.556v5.319h-3.023V79.725z"/>
		<path fill="#EDA307" d="M238.408,79.725h3.023v13.74h-3.023V79.725z"/>
		<path fill="#EDA307" d="M252.717,79.725h6.281c1.747,0,3.101,0.491,4.004,1.394c0.766,0.766,1.178,1.845,1.178,3.141v0.039
			c0,2.218-1.197,3.612-2.944,4.259l3.357,4.907h-3.533l-2.944-4.397h-2.375v4.397h-3.023V79.725z M258.802,86.398
			c1.472,0,2.316-0.785,2.316-1.943v-0.039c0-1.296-0.903-1.963-2.375-1.963h-3.003v3.945H258.802z"/>
		<path fill="#EDA307" d="M274.76,79.725h10.364v2.689h-7.361v2.787h6.477v2.689h-6.477v2.885h7.459v2.689H274.76V79.725z"/>
		<path fill="#EDA307" d="M295.763,79.725h5.359c4.318,0,7.302,2.964,7.302,6.831v0.039c0,3.867-2.984,6.87-7.302,6.87h-5.359
			V79.725z M298.785,82.453v8.283h2.336c2.473,0,4.142-1.668,4.142-4.102v-0.039c0-2.434-1.668-4.142-4.142-4.142H298.785z"/>
		<path fill="#EDA307" d="M332.095,86.634v-0.039c0-3.906,3.042-7.106,7.204-7.106c2.473,0,3.965,0.667,5.398,1.884l-1.904,2.297
			c-1.06-0.883-2.002-1.394-3.592-1.394c-2.198,0-3.945,1.943-3.945,4.279v0.039c0,2.512,1.727,4.358,4.161,4.358
			c1.099,0,2.081-0.275,2.846-0.824v-1.963h-3.042v-2.611h5.967v5.967c-1.413,1.197-3.356,2.179-5.869,2.179
			C335.039,93.7,332.095,90.697,332.095,86.634z"/>
		<path fill="#EDA307" d="M355.944,79.725h6.281c1.747,0,3.101,0.491,4.004,1.394c0.765,0.766,1.178,1.845,1.178,3.141v0.039
			c0,2.218-1.197,3.612-2.944,4.259l3.356,4.907h-3.533l-2.944-4.397h-2.375v4.397h-3.023V79.725z M362.029,86.398
			c1.472,0,2.316-0.785,2.316-1.943v-0.039c0-1.296-0.903-1.963-2.375-1.963h-3.003v3.945H362.029z"/>
		<path fill="#EDA307" d="M378.124,79.725h3.023v13.74h-3.023V79.725z"/>
		<path fill="#EDA307" d="M392.434,79.725h3.023v10.992h6.85v2.748h-9.873V79.725z"/>
		<path fill="#EDA307" d="M412.435,79.725h3.023v10.992h6.85v2.748h-9.873V79.725z"/>
		<path fill="#EDA307" d="M453.831,92.13c-1.119,0.923-2.434,1.531-4.024,1.531c-2.63,0-4.613-1.531-4.613-3.965v-0.039
			c0-1.747,0.942-2.984,2.669-3.769c-0.667-0.942-0.962-1.806-0.962-2.748v-0.039c0-1.884,1.511-3.612,4.161-3.612
			c2.336,0,3.867,1.531,3.867,3.455v0.039c0,1.845-1.178,2.925-2.885,3.592l1.825,1.825c0.451-0.707,0.903-1.511,1.335-2.355
			l2.218,1.217c-0.53,0.962-1.119,1.982-1.806,2.905l2.022,2.022l-2.218,1.551L453.831,92.13z M452.143,90.402l-2.63-2.669
			c-0.903,0.471-1.276,1.138-1.276,1.806v0.039c0,0.962,0.805,1.61,1.924,1.61C450.848,91.188,451.515,90.893,452.143,90.402z
			 M452.3,83.16V83.12c0-0.785-0.53-1.276-1.296-1.276c-0.805,0-1.335,0.569-1.335,1.394v0.039c0,0.608,0.236,1.06,0.805,1.708
			C451.672,84.534,452.3,84.023,452.3,83.16z"/>
		<path fill="#EDA307" d="M481.429,79.725h6.379c1.57,0,2.807,0.432,3.592,1.217c0.628,0.628,0.942,1.394,0.942,2.336v0.039
			c0,1.551-0.824,2.414-1.806,2.964c1.59,0.608,2.571,1.531,2.571,3.376v0.039c0,2.512-2.041,3.769-5.143,3.769h-6.536V79.725z
			 M489.34,83.788c0-0.903-0.707-1.413-1.983-1.413h-2.984v2.905h2.787c1.335,0,2.179-0.432,2.179-1.453V83.788z M487.867,87.792
			h-3.494v3.023h3.592c1.335,0,2.14-0.471,2.14-1.492v-0.039C490.105,88.361,489.418,87.792,487.867,87.792z"/>
		<path fill="#EDA307" d="M508.163,79.626h2.787l5.889,13.838h-3.16l-1.256-3.082h-5.81l-1.256,3.082h-3.082L508.163,79.626z
			 M511.343,87.713l-1.825-4.456l-1.825,4.456H511.343z"/>
		<path fill="#EDA307" d="M526.811,79.725h6.281c1.747,0,3.101,0.491,4.004,1.394c0.765,0.766,1.178,1.845,1.178,3.141v0.039
			c0,2.218-1.197,3.612-2.944,4.259l3.356,4.907h-3.533l-2.944-4.397h-2.375v4.397h-3.023V79.725z M532.895,86.398
			c1.472,0,2.316-0.785,2.316-1.943v-0.039c0-1.296-0.903-1.963-2.375-1.963h-3.003v3.945H532.895z"/>
	</g>
</g>
</svg>
